<?xml version="1.0" standalone="no"?>
<!DOCTYPE svg PUBLIC "-//W3C//DTD SVG 20010904//EN"
 "http://www.w3.org/TR/2001/REC-SVG-20010904/DTD/svg10.dtd">
<svg version="1.0" xmlns="http://www.w3.org/2000/svg"
 width="200.000000pt" height="200.000000pt" viewBox="0 0 200.000000 200.000000"
 preserveAspectRatio="xMidYMid meet">

<g transform="translate(0.000000,200.000000) scale(0.100000,-0.100000)"
fill="#000000" stroke="none">
<path d="M865 1855 c-348 -56 -626 -317 -705 -659 -19 -83 -22 -116 -18 -229
5 -112 10 -146 36 -227 46 -139 108 -238 216 -345 50 -49 117 -105 148 -123
298 -175 618 -175 916 0 31 18 98 74 148 123 108 107 171 209 216 345 26 81
31 115 36 227 6 169 -17 279 -88 422 -130 258 -374 432 -663 471 -97 12 -140
12 -242 -5z m315 -30 c233 -55 410 -181 535 -380 167 -266 168 -600 3 -879
-52 -90 -190 -228 -283 -283 -281 -169 -615 -161 -905 22 -71 44 -202 183
-249 262 -244 414 -106 938 309 1171 66 37 121 58 215 83 90 23 284 25 375 4z"/>
<path d="M630 1425 c0 -2 54 -97 120 -211 66 -114 120 -209 120 -211 0 -2 -51
-93 -114 -201 -63 -108 -118 -205 -121 -214 -7 -17 15 -18 364 -18 204 0 371
4 371 8 0 4 -52 98 -116 207 -64 110 -118 205 -120 210 -3 6 50 104 116 218
66 114 120 210 120 212 0 3 -166 5 -370 5 -203 0 -370 -2 -370 -5z m664 -24
c-5 -5 -73 -45 -152 -90 l-142 -82 -150 86 c-83 48 -150 89 -150 91 0 2 136 4
302 4 176 0 298 -4 292 -9z m-522 -64 c40 -24 106 -63 146 -86 l73 -42 -19
-32 c-11 -18 -34 -58 -51 -89 -18 -32 -34 -58 -36 -58 -2 0 -40 64 -86 143
-45 78 -90 157 -101 175 -11 17 -15 32 -9 32 6 0 43 -19 83 -43z m531 11 c-11
-18 -57 -97 -102 -176 -46 -79 -86 -140 -90 -137 -3 4 -27 43 -53 88 -54 96
-63 80 92 167 58 33 114 66 125 74 36 28 49 20 28 -16z m-313 -350 c0 -141 -1
-143 -19 -119 -10 13 -31 47 -46 75 l-28 52 39 67 c21 37 42 67 47 67 4 0 7
-64 7 -142z m74 75 l39 -67 -28 -52 c-15 -28 -36 -62 -46 -75 -18 -24 -19 -22
-19 119 0 78 3 142 8 142 4 0 25 -30 46 -67z m-123 -191 l48 -81 -27 -19 c-54
-37 -263 -153 -271 -150 -11 4 181 338 193 335 5 -2 30 -40 57 -85z m287 -92
c49 -85 86 -156 81 -158 -10 -4 -275 145 -288 162 -5 7 11 43 41 95 42 70 52
81 63 70 8 -8 54 -84 103 -169z m-114 -79 c56 -32 120 -68 144 -80 23 -12 40
-26 37 -31 -8 -13 -582 -13 -589 -1 -4 5 31 29 76 54 46 24 110 61 143 81 33
20 66 36 74 36 8 0 60 -26 115 -59z"/>
</g>
</svg>
